<svg xml:space="preserve" viewBox="20 20 60 60" y="0" x="0" xmlns="http://www.w3.org/2000/svg" id="Layer_1" version="1.1" style="margin: initial; display: block; shape-rendering: auto; background: rgba(255, 255, 255, 0);" preserveAspectRatio="xMidYMid" width="290" height="290"><g class="ldl-scale" style="transform-origin: 50% 50%; transform: rotate(0deg) scale(0.8, 0.8);"><g class="ldl-ani"><g class="ldl-layer"><g class="ldl-ani" style="transform: matrix3d(0.91, 0, 0, 0, 0, 0.91, 0, 0, 0, 0, 0.91, 0, 0, 0, 0, 1); transform-box: view-box; opacity: 1; animation: 1s linear -0.526316s infinite normal forwards running animate; transform-origin: 50px 50px;"><path stroke="#333" fill="#666766" stroke-miterlimit="10" stroke-width="3.5" d="M78.857 78.057h-1.023a6.69 6.69 0 0 1-6.69-6.69V57.366a6.69 6.69 0 0 1 6.69-6.69h1.023a6.69 6.69 0 0 1 6.69 6.69v14.002a6.69 6.69 0 0 1-6.69 6.689z" style="fill: rgb(85, 200, 157); stroke: rgb(141, 249, 162);"></path></g></g><g class="ldl-layer"><g class="ldl-ani" style="transform: matrix3d(0.91, 0, 0, 0, 0, 0.91, 0, 0, 0, 0, 0.91, 0, 0, 0, 0, 1); transform-box: view-box; opacity: 1; animation: 1s linear -0.552632s infinite normal forwards running animate; transform-origin: 50px 50px;"><path stroke-width="3.5" stroke="#000" stroke-miterlimit="10" stroke-linejoin="round" stroke-linecap="round" opacity=".2" d="M82.344 51.683c.426.88.672 1.864.672 2.907v14.002a6.69 6.69 0 0 1-6.69 6.69h-1.023a6.662 6.662 0 0 1-2.89-.663c-.161-.035-.326-.06-.482-.105a6.687 6.687 0 0 0 5.903 3.544h1.023a6.69 6.69 0 0 0 6.69-6.69V57.366c0-2.412-1.288-4.507-3.203-5.683z" style="fill: rgb(21, 33, 43); stroke: rgb(21, 33, 43);"></path></g></g><g class="ldl-layer"><g class="ldl-ani" style="transform: matrix3d(0.91, 0, 0, 0, 0, 0.91, 0, 0, 0, 0, 0.91, 0, 0, 0, 0, 1); transform-box: view-box; opacity: 1; animation: 1s linear -0.578947s infinite normal forwards running animate; transform-origin: 50px 50px;"><path d="M50 17.903v31.733" stroke-width="3.5" stroke="#333" fill="none" stroke-miterlimit="10" style="stroke: rgb(141, 249, 162);"></path></g></g><g class="ldl-layer"><g class="ldl-ani" style="transform: matrix3d(0.91, 0, 0, 0, 0, 0.91, 0, 0, 0, 0, 0.91, 0, 0, 0, 0, 1); transform-box: view-box; opacity: 1; animation: 1s linear -0.605263s infinite normal forwards running animate; transform-origin: 50px 50px;"><circle stroke-miterlimit="10" stroke="#333" fill="#e15c64" stroke-width="3.5" r="7.903" cy="17.903" cx="50" style="fill: rgb(48, 157, 142); stroke: rgb(141, 249, 162);"></circle></g></g><g class="ldl-layer"><g class="ldl-ani" style="transform: matrix3d(0.91, 0, 0, 0, 0, 0.91, 0, 0, 0, 0, 0.91, 0, 0, 0, 0, 1); transform-box: view-box; opacity: 1; animation: 1s linear -0.631579s infinite normal forwards running animate; transform-origin: 50px 50px;"><path stroke-miterlimit="10" stroke="#000" stroke-linejoin="round" stroke-width="3.5" opacity=".2" d="M56.537 13.462a15.457 15.457 0 0 1-1.259 4.328c-1.863 4.104-5.151 6.87-8.323 7.406a7.903 7.903 0 0 0 9.582-11.734z" style="fill: rgb(21, 33, 43); stroke: rgb(21, 33, 43);"></path></g></g><g class="ldl-layer"><g class="ldl-ani" style="transform: matrix3d(0.91, 0, 0, 0, 0, 0.91, 0, 0, 0, 0, 0.91, 0, 0, 0, 0, 1); transform-box: view-box; opacity: 1; animation: 1s linear -0.657895s infinite normal forwards running animate; transform-origin: 50px 50px;"><path stroke="#333" fill="#666766" stroke-miterlimit="10" stroke-width="3.5" d="M21.143 78.057h1.023a6.69 6.69 0 0 0 6.69-6.69V57.366a6.69 6.69 0 0 0-6.69-6.69h-1.023a6.69 6.69 0 0 0-6.69 6.69v14.002a6.69 6.69 0 0 0 6.69 6.689z" style="fill: rgb(85, 200, 157); stroke: rgb(141, 249, 162);"></path></g></g><g class="ldl-layer"><g class="ldl-ani" style="transform: matrix3d(0.91, 0, 0, 0, 0, 0.91, 0, 0, 0, 0, 0.91, 0, 0, 0, 0, 1); transform-box: view-box; opacity: 1; animation: 1s linear -0.684211s infinite normal forwards running animate; transform-origin: 50px 50px;"><path stroke-miterlimit="10" stroke="#000" stroke-linejoin="round" stroke-width="3.5" opacity=".2" d="M24.974 51.3c.048.322.08.649.08.984v14.002a6.69 6.69 0 0 1-6.69 6.69h-1.023a6.661 6.661 0 0 1-2.808-.624c.477 3.227 3.25 5.706 6.609 5.706h1.023a6.69 6.69 0 0 0 6.69-6.69V57.366a6.682 6.682 0 0 0-3.881-6.066z" style="fill: rgb(21, 33, 43); stroke: rgb(21, 33, 43);"></path></g></g><g class="ldl-layer"><g class="ldl-ani" style="transform: matrix3d(0.91, 0, 0, 0, 0, 0.91, 0, 0, 0, 0, 0.91, 0, 0, 0, 0, 1); transform-box: view-box; opacity: 1; animation: 1s linear -0.710526s infinite normal forwards running animate; transform-origin: 50px 50px;"><path stroke-miterlimit="10" stroke-width="3.5" stroke="#333" fill="#e0e0e0" d="M71.646 90H28.354a5.133 5.133 0 0 1-5.133-5.133V41.399a5.133 5.133 0 0 1 5.133-5.133h43.293a5.133 5.133 0 0 1 5.133 5.133v43.468A5.134 5.134 0 0 1 71.646 90z" style="fill: rgb(32, 70, 81); stroke: rgb(141, 249, 162);"></path></g></g><g class="ldl-layer"><g class="ldl-ani" style="transform: matrix3d(0.91, 0, 0, 0, 0, 0.91, 0, 0, 0, 0, 0.91, 0, 0, 0, 0, 1); transform-box: view-box; opacity: 1; animation: 1s linear -0.736842s infinite normal forwards running animate; transform-origin: 50px 50px;"><path stroke-width="3.5" stroke-miterlimit="10" stroke="#000" opacity=".2" d="M71.646 36.266h-1.533V78.43a5.133 5.133 0 0 1-5.133 5.133H23.22v1.304A5.133 5.133 0 0 0 28.353 90h43.293a5.133 5.133 0 0 0 5.133-5.133V41.399a5.133 5.133 0 0 0-5.133-5.133z" style="fill: rgb(21, 33, 43); stroke: rgb(21, 33, 43);"></path></g></g><g class="ldl-layer"><g class="ldl-ani" style="transform: matrix3d(0.91, 0, 0, 0, 0, 0.91, 0, 0, 0, 0, 0.91, 0, 0, 0, 0, 1); transform-box: view-box; opacity: 1; animation: 1s linear -0.763158s infinite normal forwards running animate; transform-origin: 50px 50px;"><path stroke-miterlimit="10" stroke="#333" fill="#fff" stroke-width="3.5" d="M37.944 69.948a6.057 6.057 0 0 0-6.057 6.057v0a6.057 6.057 0 0 0 6.057 6.057h1.658V69.948h-1.658z" style="fill: rgb(21, 33, 43); stroke: rgb(141, 249, 162);"></path></g></g><g class="ldl-layer"><g class="ldl-ani" style="transform: matrix3d(0.91, 0, 0, 0, 0, 0.91, 0, 0, 0, 0, 0.91, 0, 0, 0, 0, 1); transform-box: view-box; opacity: 1; animation: 1s linear -0.789474s infinite normal forwards running animate; transform-origin: 50px 50px;"><path d="M39.602 69.948h6.932v12.115h-6.932z" stroke-miterlimit="10" stroke="#333" fill="#fff" stroke-width="3.5" style="fill: rgb(21, 33, 43); stroke: rgb(141, 249, 162);"></path></g></g><g class="ldl-layer"><g class="ldl-ani" style="transform: matrix3d(0.91, 0, 0, 0, 0, 0.91, 0, 0, 0, 0, 0.91, 0, 0, 0, 0, 1); transform-box: view-box; opacity: 1; animation: 1s linear -0.815789s infinite normal forwards running animate; transform-origin: 50px 50px;"><path d="M46.534 69.948h6.932v12.115h-6.932z" stroke-miterlimit="10" stroke="#333" fill="#fff" stroke-width="3.5" style="fill: rgb(21, 33, 43); stroke: rgb(141, 249, 162);"></path></g></g><g class="ldl-layer"><g class="ldl-ani" style="transform: matrix3d(0.91, 0, 0, 0, 0, 0.91, 0, 0, 0, 0, 0.91, 0, 0, 0, 0, 1); transform-box: view-box; opacity: 1; animation: 1s linear -0.842105s infinite normal forwards running animate; transform-origin: 50px 50px;"><path stroke-miterlimit="10" stroke="#333" fill="#fff" stroke-width="3.5" d="M62.056 69.948h-1.658v12.115h1.658a6.057 6.057 0 0 0 6.057-6.057v0a6.057 6.057 0 0 0-6.057-6.058z" style="fill: rgb(21, 33, 43); stroke: rgb(141, 249, 162);"></path></g></g><g class="ldl-layer"><g class="ldl-ani" style="transform: matrix3d(0.91, 0, 0, 0, 0, 0.91, 0, 0, 0, 0, 0.91, 0, 0, 0, 0, 1); transform-box: view-box; opacity: 1; animation: 1s linear -0.868421s infinite normal forwards running animate; transform-origin: 50px 50px;"><path d="M53.466 69.948h6.932v12.115h-6.932z" stroke-miterlimit="10" stroke="#333" fill="#fff" stroke-width="3.5" style="fill: rgb(21, 33, 43); stroke: rgb(141, 249, 162);"></path></g></g><g class="ldl-layer"><g class="ldl-ani" style="transform: matrix3d(0.91, 0, 0, 0, 0, 0.91, 0, 0, 0, 0, 0.91, 0, 0, 0, 0, 1); transform-box: view-box; opacity: 1; animation: 1s linear -0.894737s infinite normal forwards running animate; transform-origin: 50px 50px;"><circle stroke-width="3.5" stroke="#333" fill="#acbd81" stroke-miterlimit="10" r="5.942" cy="53.343" cx="38.829" style="fill: rgb(36, 112, 116); stroke: rgb(141, 249, 162);"></circle></g></g><g class="ldl-layer"><g class="ldl-ani" style="transform: matrix3d(0.91, 0, 0, 0, 0, 0.91, 0, 0, 0, 0, 0.91, 0, 0, 0, 0, 1); transform-box: view-box; opacity: 1; animation: 1s linear -0.921053s infinite normal forwards running animate; transform-origin: 50px 50px;"><circle stroke-width="3.5" stroke="#333" fill="#acbd81" stroke-miterlimit="10" r="5.942" cy="53.343" cx="61.171" style="fill: rgb(36, 112, 116); stroke: rgb(141, 249, 162);"></circle></g></g><g class="ldl-layer"><g class="ldl-ani" style="transform: matrix3d(0.91, 0, 0, 0, 0, 0.91, 0, 0, 0, 0, 0.91, 0, 0, 0, 0, 1); transform-box: view-box; opacity: 1; animation: 1s linear -0.947368s infinite normal forwards running animate; transform-origin: 50px 50px;"><path d="M28.356 54.625v.925" stroke-miterlimit="10" stroke-width="3.5" stroke-linecap="round" stroke="#fff" fill="none" style="stroke: rgb(21, 33, 43);"></path></g></g><g class="ldl-layer"><g class="ldl-ani" style="transform: matrix3d(0.91, 0, 0, 0, 0, 0.91, 0, 0, 0, 0, 0.91, 0, 0, 0, 0, 1); transform-box: view-box; opacity: 1; animation: 1s linear -0.973684s infinite normal forwards running animate; transform-origin: 50px 50px;"><path d="M28.356 42.375v7.261" stroke-miterlimit="10" stroke-width="3.5" stroke-linecap="round" stroke="#fff" fill="none" style="stroke: rgb(21, 33, 43);"></path></g></g><g class="ldl-layer"><g class="ldl-ani" style="transform: matrix3d(0.91, 0, 0, 0, 0, 0.91, 0, 0, 0, 0, 0.91, 0, 0, 0, 0, 1); transform-box: view-box; opacity: 1; animation: 1s linear -1s infinite normal forwards running animate; transform-origin: 50px 50px;"><path stroke-width="3.5" stroke="#000" stroke-miterlimit="10" stroke-linejoin="round" stroke-linecap="round" opacity=".2" d="M32.169 77.833a6.058 6.058 0 0 0 5.775 4.229H62.056c2.708 0 5-1.778 5.775-4.229H32.169z" style="fill: rgb(21, 33, 43); stroke: rgb(21, 33, 43);"></path></g></g><metadata xmlns:d="https://loading.io/stock/">




</metadata></g></g></svg>